<svg xmlns="http://www.w3.org/2000/svg" xmlns:xlink="http://www.w3.org/1999/xlink" xmlns:fi="http://pattern.flaticon.com/" x="0" y="0" width="700" height="350" viewBox="0 0 2425.7425742574255 1212.8712871287128"><rect x="0px" y="0px" width="100%" height="100%" opacity="1" fill="#ffffff"/><defs><g transform="matrix(0.4159116412426497 0.08434571747366619 -0.08434571747366619 0.4159116412426497 -40.8809207679128 -80.06572786335636)" id="L1_0"><path d="M256,26.483c-88.322,0-108.398,88.7-109.216,199.272c-0.034,4.6,2.669,8.744,6.813,10.68  c15.607,7.293,43.341,12.93,64.886,16.28h75.034c21.544-3.35,49.279-8.988,64.886-16.28c4.142-1.935,6.847-6.079,6.813-10.68  C364.398,115.182,344.322,26.483,256,26.483z" fill="#694b4b"/><path d="M146.784,225.754c-0.034,4.6,2.669,8.744,6.813,10.68c15.607,7.293,43.341,12.93,64.886,16.28H256  V123.586c0,0-43.874,2.141-35.31,0c35.31-8.828,105.931-52.966,64.86-93.194c-8.883-2.554-18.696-3.91-29.549-3.91  C167.678,26.483,147.602,115.182,146.784,225.754z" fill="#5a4146"/><path d="M388.619,459.034V323.062c0-14.254-8.572-27.112-21.729-32.594l-62.283-25.951  c-5.814-2.422-9.601-8.104-9.601-14.402v-18.852h-78.012v18.852c0,6.298-3.787,11.979-9.601,14.402l-62.283,25.951  c-13.159,5.483-21.729,18.339-21.729,32.594v135.972H388.619z" fill="#d29b6e"/><path d="M366.89,290.468l-43.784-18.243c-16.119,19.453-32.1,34.13-46.014,44.888h-42.184  c-13.913-10.759-29.895-25.436-46.014-44.888l-43.784,18.243c-13.159,5.482-21.729,18.339-21.729,32.594v135.972H388.62V323.062  C388.619,308.807,380.047,295.95,366.89,290.468z" fill="#ffdc64"/><g><path d="M128.448,305c-3.203,5.362-5.067,11.544-5.067,18.062v135.972h53.171V353.103L128.448,305z" fill="#ffc850"/><path d="M383.552,305c3.203,5.362,5.067,11.544,5.067,18.062v135.972h-53.171V353.103L383.552,305z" fill="#ffc850"/></g><path d="M333.43,134.295l-5.726,62.977c-0.935,10.283-6.895,19.438-15.922,24.452l-40.628,22.571  c-9.425,5.236-20.884,5.236-30.308,0l-40.628-22.571c-9.026-5.014-14.987-14.169-15.922-24.452l-5.528-60.814  c-0.429-4.716,2.926-8.914,7.63-9.463c20.835-2.432,75.559-10.059,108.679-26.144c4.189-2.035,9.102-0.394,11.424,3.642  c3.797,6.599,10.804,15.829,22.298,21.303C331.979,127.311,333.749,130.787,333.43,134.295z" fill="#f0c087"/><path d="M503.172,485.517H8.828c-4.875,0-8.828-3.953-8.828-8.828v-17.655c0-4.875,3.953-8.828,8.828-8.828  h494.345c4.875,0,8.828,3.953,8.828,8.828v17.655C512,481.565,508.047,485.517,503.172,485.517z" fill="#f5dcb4"/><path d="M178.767,136.459l5.528,60.814c0.935,10.283,6.895,19.437,15.922,24.452l40.628,22.571  c3.719,2.066,7.776,3.078,11.878,3.512l-11.433-28.58c-1.953-4.884-3.168-10.03-3.605-15.272l-4.86-58.311  c-0.372-4.468,2.654-8.463,7.043-9.374c18.807-3.9,38.927-9.203,55.668-16.262c5.521,7.633,13.789,16.068,25.671,21.727  c2.382,1.134,3.513,1.651,11.336,2.293l0.885-9.736c0.32-3.524-1.481-6.994-4.674-8.519c-11.469-5.476-18.463-14.691-22.254-21.281  c-2.322-4.036-7.236-5.677-11.425-3.642c-33.12,16.086-87.842,23.712-108.679,26.144  C181.694,127.545,178.338,131.742,178.767,136.459z" fill="#e6af78"/><path d="M175.299,283.489c15.073,18.19,31.495,34.202,48.808,47.591l4.77,3.689h6.03h42.184h6.03l4.77-3.689  c17.314-13.388,33.736-29.4,48.808-47.591l3.449-4.162l-17.044-7.102c-16.119,19.453-32.1,34.13-46.014,44.888h-42.184  c-13.913-10.759-29.895-25.436-46.014-44.888l-17.044,7.102L175.299,283.489z" fill="#ffc850"/><path d="M335.448,450.207H176.552c-9.751,0-17.655-7.904-17.655-17.655V326.621  c0-9.751,7.904-17.655,17.655-17.655h158.897c9.751,0,17.655,7.904,17.655,17.655v105.931  C353.103,442.303,345.199,450.207,335.448,450.207z" fill="#d5dced"/><circle cx="256" cy="379" r="17" fill="#ffffff"/></g><g transform="matrix(0.6280458286503474 0.15963706320685359 -0.15963706320685359 0.6280458286503474 63.14882123527286 62.37268729453527)" id="L1_1"><circle cx="180" cy="167" r="167" fill="#f5dcb4"/><path d="M342.624,123.586h-11.895c-3.777,0-7.039-2.443-8.301-6.003  C299.788,53.71,235.149,9.714,161.698,18.857C93.805,27.309,39.362,82.618,31.844,150.621  c-10.009,90.54,60.607,167.172,149.121,167.172c8.582,0,16.962-0.799,25.132-2.229c5.337-0.935,10.178,3.266,10.178,8.685v7.403  c75.663-16.225,132.414-83.42,132.414-163.928C348.69,152.423,346.463,137.672,342.624,123.586z" fill="#ebc9a0"/><circle cx="180" cy="167" r="132" fill="#ffffff"/><g><circle cx="180" cy="167" r="35" fill="#e4eaf8"/><path d="M428.138,141.241H251.586c-9.75,0-17.655,7.904-17.655,17.655v335.448   c0,9.75,7.905,17.655,17.655,17.655h229.517c9.75,0,17.655-7.905,17.655-17.655V211.862L428.138,141.241z" fill="#e4eaf8"/></g><path d="M428.138,141.241v52.966c0,9.75,7.905,17.655,17.655,17.655h52.966L428.138,141.241z" fill="#d5dced"/><path d="M454.621,344.276h-79.448c-4.879,0-8.828-3.953-8.828-8.828s3.948-8.828,8.828-8.828h79.448  c4.879,0,8.828,3.953,8.828,8.828S459.5,344.276,454.621,344.276z" fill="#707487"/><path d="M436.966,379.586h-61.793c-4.879,0-8.828-3.953-8.828-8.828c0-4.875,3.948-8.828,8.828-8.828h61.793  c4.879,0,8.828,3.953,8.828,8.828C445.793,375.634,441.845,379.586,436.966,379.586z" fill="#959cb5"/><path d="M304.552,379.586c-2.259,0-4.518-0.862-6.241-2.586l-26.483-26.483  c-3.448-3.448-3.448-9.035,0-12.483c3.448-3.448,9.035-3.448,12.483,0l20.241,20.243l29.069-29.069  c3.448-3.448,9.035-3.448,12.483,0s3.448,9.035,0,12.483l-35.31,35.31C309.069,378.724,306.81,379.586,304.552,379.586z" fill="#464655"/><path d="M454.621,256h-79.448c-4.879,0-8.828-3.953-8.828-8.828s3.948-8.828,8.828-8.828h79.448  c4.879,0,8.828,3.953,8.828,8.828S459.5,256,454.621,256z" fill="#707487"/><path d="M436.966,291.31h-61.793c-4.879,0-8.828-3.953-8.828-8.828s3.948-8.828,8.828-8.828h61.793  c4.879,0,8.828,3.953,8.828,8.828S441.845,291.31,436.966,291.31z" fill="#959cb5"/><path d="M304.552,291.31c-2.259,0-4.518-0.862-6.241-2.586l-26.483-26.483c-3.448-3.448-3.448-9.035,0-12.483  s9.035-3.448,12.483,0l20.241,20.243l29.069-29.069c3.448-3.448,9.035-3.448,12.483,0s3.448,9.035,0,12.483l-35.31,35.31  C309.069,290.449,306.81,291.31,304.552,291.31z" fill="#464655"/><path d="M454.621,432.552h-79.448c-4.879,0-8.828-3.953-8.828-8.828c0-4.875,3.948-8.828,8.828-8.828h79.448  c4.879,0,8.828,3.953,8.828,8.828C463.448,428.599,459.5,432.552,454.621,432.552z" fill="#707487"/><path d="M436.966,467.862h-61.793c-4.879,0-8.828-3.953-8.828-8.828s3.948-8.828,8.828-8.828h61.793  c4.879,0,8.828,3.953,8.828,8.828S441.845,467.862,436.966,467.862z" fill="#959cb5"/><g><path d="M304.552,467.862c-2.259,0-4.518-0.862-6.241-2.586l-26.483-26.483   c-3.448-3.448-3.448-9.035,0-12.483s9.035-3.448,12.483,0l20.241,20.243l29.069-29.069c3.448-3.448,9.035-3.448,12.483,0   s3.448,9.035,0,12.483l-35.31,35.31C309.069,467,306.81,467.862,304.552,467.862z" fill="#464655"/><path d="M180.966,176.552c-2.259,0-4.518-0.862-6.241-2.586l-70.621-70.621   c-3.448-3.448-3.448-9.035,0-12.483c3.448-3.448,9.035-3.448,12.483,0l64.378,64.381l73.207-73.207   c3.448-3.448,9.035-3.448,12.483,0c3.448,3.448,3.448,9.035,0,12.483l-79.448,79.448   C185.483,175.69,183.224,176.552,180.966,176.552z" fill="#464655"/></g><g><path d="M392.828,203.034H278.069c-4.879,0-8.828-3.953-8.828-8.828s3.948-8.828,8.828-8.828h114.759   c4.879,0,8.828,3.953,8.828,8.828S397.707,203.034,392.828,203.034z" fill="#707487"/><circle cx="180" cy="167" r="17" fill="#707487"/></g><g><path d="M85.992,102.702l-15.028-8.68c-3.272,4.874-6.111,10.042-8.723,15.345l14.923,8.619   c1.388,0.806,2.905,1.185,4.405,1.185c3.052,0,6.017-1.582,7.656-4.414C91.663,110.539,90.216,105.138,85.992,102.702z" fill="#d5dced"/><path d="M115.939,72.755c1.638,2.831,4.604,4.414,7.656,4.414c1.5,0,3.017-0.38,4.405-1.181   c4.224-2.44,5.673-7.84,3.233-12.061l-8.62-14.93c-5.305,2.613-10.476,5.453-15.351,8.727L115.939,72.755z" fill="#d5dced"/></g><g><path d="M48.998,176.552h17.209c4.879,0,8.828-3.953,8.828-8.828s-3.948-8.828-8.828-8.828H48.998   c-0.194,2.931-0.446,5.847-0.446,8.828S48.803,173.621,48.998,176.552z" fill="#c7cfe2"/><path d="M180.966,35.31c-2.98,0-5.897,0.252-8.828,0.446v17.209c0,4.875,3.948,8.828,8.828,8.828   s8.828-3.953,8.828-8.828V35.756C186.862,35.562,183.946,35.31,180.966,35.31z" fill="#c7cfe2"/></g><g><path d="M77.164,217.461l-14.923,8.619c2.612,5.303,5.451,10.472,8.723,15.345l15.028-8.68   c4.224-2.435,5.673-7.837,3.233-12.056C86.784,216.466,81.37,215.009,77.164,217.461z" fill="#d5dced"/><path d="M128,259.462c-4.215-2.444-9.621-0.995-12.061,3.233l-8.679,15.03   c4.875,3.273,10.046,6.114,15.351,8.727l8.62-14.93C133.673,267.302,132.224,261.901,128,259.462z" fill="#d5dced"/></g><path d="M180.966,273.655c-4.879,0-8.828,3.953-8.828,8.828v17.209c2.931,0.194,5.847,0.446,8.828,0.446  s5.897-0.252,8.828-0.446v-17.209C189.793,277.608,185.845,273.655,180.966,273.655z" fill="#c7cfe2"/><g><path d="M239.318,48.998l-8.62,14.93c-2.44,4.22-0.991,9.621,3.233,12.061   c1.388,0.802,2.905,1.181,4.405,1.181c3.052,0,6.017-1.582,7.656-4.414l8.679-15.03C249.794,54.451,244.623,51.61,239.318,48.998z" fill="#d5dced"/><path d="M284.767,117.987l14.923-8.619c-2.612-5.303-5.451-10.472-8.723-15.345l-15.028,8.68   c-4.224,2.435-5.673,7.837-3.233,12.056c1.638,2.831,4.604,4.414,7.656,4.414C281.863,119.172,283.38,118.793,284.767,117.987z" fill="#d5dced"/></g></g><g transform="matrix(0.39891458567416876 0.08599356086864607 -0.08599356086864607 0.39891458567416876 218.89221764978618 88.8635144850394)" id="L1_3"><path d="M118.29,220.69v40.768c0,6.2-4.044,11.676-9.971,13.5l-61.896,19.044  c-11.852,3.648-19.94,14.599-19.94,26.999v102.723c0,19.501,15.809,35.31,35.31,35.31h17.655h185.379V220.69H118.29z" fill="#d29b6e"/><path d="M167.724,326.621c-34.178,0-64.311-17.941-81.629-44.825l-39.672,12.207  c-11.852,3.647-19.94,14.598-19.94,26.998v102.723c0,19.501,15.809,35.31,35.31,35.31h17.655h185.379V229.517  C264.828,282.924,221.131,326.621,167.724,326.621z" fill="#59d8ff"/><g><path d="M264.828,229.517c0,53.407-43.697,97.103-97.103,97.103c-34.178,0-64.311-17.941-81.629-44.825   l-17.483,5.379c19.891,34.113,56.776,57.101,99.112,57.101c40.951,0,76.794-21.517,97.103-53.795V229.517z" fill="#00c3f0"/><path d="M176.552,414.897H88.276c-4.875,0-8.828-3.953-8.828-8.828v-41.996   c0-7.023-2.791-13.76-7.756-18.727l-40.238-40.238c-3.129,4.583-4.971,10.06-4.971,15.893v102.723   c0,19.501,15.809,35.31,35.31,35.31h17.655h123.586v-17.655C203.034,426.753,191.178,414.897,176.552,414.897z" fill="#00c3f0"/></g><path d="M242.759,158.897h-1.31l-3.104-61.793H98.207v61.793H92.69c-7.313,0-13.241,5.929-13.241,13.241  v17.655c0,7.313,5.929,13.241,13.241,13.241h8.369l1.434,8.963c1.079,6.742,4.564,12.866,9.81,17.238l28.344,23.62  c3.807,3.172,8.607,4.91,13.564,4.91h27.029c4.956,0,9.756-1.738,13.564-4.91l28.344-23.62c5.246-4.371,8.73-10.495,9.81-17.238  l1.434-8.963h8.367c7.313,0,13.241-5.929,13.241-13.241v-17.655C256,164.825,250.071,158.897,242.759,158.897z" fill="#f0c087"/><path d="M238.345,97.103h-88.276H98.207v61.793H92.69c-7.313,0-13.241,5.929-13.241,13.241v17.655  c0,7.313,5.929,13.241,13.241,13.241h8.369l1.434,8.962c1.079,6.743,4.564,12.866,9.81,17.238l28.344,23.62  c3.807,3.172,8.607,4.91,13.562,4.91h11.161l-12.584-37.75c-1.8-5.4-2.718-11.055-2.718-16.748v-53.198  c0-4.875,3.953-8.828,8.828-8.828l0,0c0,0,8.828,0,12.359-4.242c5.38,2.751,11.41,4.242,17.655,4.242  c6.246,0,12.274-1.491,17.655-4.242c5.38,2.751,11.41,4.242,17.655,4.242c0.888,0,1.754-0.06,2.614-0.158l13.72,0.017  L238.345,97.103z" fill="#e6af78"/><path d="M273.655,95.338c0-9.781-6.665-17.932-15.676-20.37c0.98-2.439,1.551-5.088,1.551-7.879  c0-11.701-9.485-21.186-21.186-21.186c-0.431,0-0.833,0.102-1.258,0.127c-2.883-8.276-10.67-14.251-19.928-14.251  c-2.274,0-4.43,0.424-6.47,1.111c-4.522-4.985-10.987-8.173-18.248-8.173c-1.873,0-3.679,0.248-5.432,0.642  c-5.054-4.745-11.806-7.704-19.285-7.704s-14.231,2.959-19.285,7.704c-1.753-0.394-3.561-0.642-5.432-0.642  c-6.739,0-12.834,2.713-17.293,7.087c-0.122-0.002-0.238-0.025-0.362-0.025c-9.258,0-17.045,5.976-19.928,14.251  c-0.425-0.025-0.828-0.127-1.258-0.127c-11.701,0-21.186,9.485-21.186,21.186c0,2.79,0.572,5.439,1.55,7.879  c-9.01,2.438-15.674,10.589-15.674,20.37c0,5.451,2.116,10.369,5.498,14.124c-3.382,3.754-5.498,8.673-5.498,14.124  c0,7.841,4.311,14.593,10.652,18.238c0.314,9.474,8.045,17.073,17.597,17.073h7.718c3.452,0,6.398-2.496,6.966-5.901l4.928-29.568  c0.53,0.04,1.035,0.159,1.575,0.159c7.379,0,13.862-3.78,17.655-9.502c3.794,5.721,10.276,9.502,17.655,9.502  c7.379,0,13.862-3.78,17.655-9.502c3.794,5.721,10.276,9.502,17.655,9.502s13.862-3.78,17.655-9.502  c3.794,5.721,10.276,9.502,17.655,9.502c0.538,0,1.045-0.119,1.575-0.159l4.928,29.568c0.568,3.405,3.514,5.901,6.966,5.901h9.483  c9.75,0,17.655-7.905,17.655-17.655c0-0.183-0.049-0.353-0.054-0.535c5.359-3.823,8.882-10.029,8.882-17.12  c0-5.451-2.116-10.37-5.499-14.124C271.539,105.707,273.655,100.789,273.655,95.338z" fill="#694b4b"/><path d="M162.554,108.204c-8.276-2.883-14.251-10.67-14.251-19.928c0-5.451,2.116-10.37,5.498-14.124  c-3.382-3.754-5.498-8.673-5.498-14.124c0-9.781,6.665-17.932,15.676-20.37c-0.98-2.439-1.55-5.088-1.55-7.879  c0-5.442,2.111-10.354,5.483-14.105c-0.064,0-0.122-0.019-0.186-0.019c-7.479,0-14.231,2.959-19.285,7.704  c-1.753-0.394-3.561-0.642-5.432-0.642c-6.739,0-12.834,2.713-17.293,7.087c-0.122-0.002-0.238-0.025-0.362-0.025  c-9.258,0-17.045,5.976-19.928,14.251c-0.425-0.025-0.828-0.127-1.258-0.127c-11.701,0-21.186,9.485-21.186,21.186  c0,2.79,0.572,5.439,1.55,7.879c-9.011,2.438-15.676,10.589-15.676,20.37c0,5.451,2.116,10.369,5.498,14.124  c-3.382,3.754-5.498,8.673-5.498,14.124c0,7.841,4.311,14.593,10.652,18.238c0.314,9.474,8.045,17.073,17.597,17.073h7.718  c3.452,0,6.398-2.496,6.966-5.901l4.928-29.568c0.53,0.04,1.035,0.159,1.575,0.159c7.379,0,13.862-3.78,17.655-9.502  c3.794,5.721,10.276,9.502,17.655,9.502c4.873,0,9.267-1.761,12.843-4.53c-2.419-2.519-4.015-5.82-4.015-9.594  C162.428,109.031,162.516,108.625,162.554,108.204z" fill="#5a4146"/><path d="M150.069,414.897h26.483c14.626,0,26.483,11.857,26.483,26.483v17.655h-52.966V414.897z" fill="#e6af78"/><path d="M485.517,397.241H220.69c-14.626,0-26.483-11.857-26.483-26.483V211.862  c0-14.626,11.857-26.483,26.483-26.483h264.828c14.626,0,26.483,11.857,26.483,26.483v158.897  C512,385.385,500.143,397.241,485.517,397.241z" fill="#d5dced"/><path d="M406.069,459.034l-15.613-117.092c-1.17-8.771-8.651-15.321-17.501-15.321H333.25  c-8.849,0-16.331,6.55-17.501,15.321l-15.612,117.092v17.655h105.931V459.034z" fill="#afb9d2"/><circle cx="353" cy="273" r="17" fill="#ffffff"/><path d="M503.172,494.345H8.828c-4.875,0-8.828-3.953-8.828-8.828v-17.655c0-4.875,3.953-8.828,8.828-8.828  h494.345c4.875,0,8.828,3.953,8.828,8.828v17.655C512,490.392,508.047,494.345,503.172,494.345z" fill="#f5dcb4"/></g></defs><g fi:class="KUsePattern"><pattern id="pattern_L1_0" width="350" height="350" patternUnits="userSpaceOnUse"><use xlink:href="#L1_0" x="-350" y="-350"/><use xlink:href="#L1_0" x="0" y="-350"/><use xlink:href="#L1_0" x="350" y="-350"/><use xlink:href="#L1_0" x="-350" y="0"/><use xlink:href="#L1_0" x="0" y="0"/><use xlink:href="#L1_0" x="350" y="0"/><use xlink:href="#L1_0" x="-350" y="350"/><use xlink:href="#L1_0" x="0" y="350"/><use xlink:href="#L1_0" x="350" y="350"/></pattern><rect x="0" y="0" width="100%" height="100%" fill="url(#pattern_L1_0)"/></g><g fi:class="KUsePattern"><pattern id="pattern_L1_1" width="350" height="350" patternUnits="userSpaceOnUse"><use xlink:href="#L1_1" x="-350" y="-350"/><use xlink:href="#L1_1" x="0" y="-350"/><use xlink:href="#L1_1" x="350" y="-350"/><use xlink:href="#L1_1" x="-350" y="0"/><use xlink:href="#L1_1" x="0" y="0"/><use xlink:href="#L1_1" x="350" y="0"/><use xlink:href="#L1_1" x="-350" y="350"/><use xlink:href="#L1_1" x="0" y="350"/><use xlink:href="#L1_1" x="350" y="350"/></pattern><rect x="0" y="0" width="100%" height="100%" fill="url(#pattern_L1_1)"/></g><g fi:class="KUsePattern"><pattern id="pattern_L1_3" width="350" height="350" patternUnits="userSpaceOnUse"><use xlink:href="#L1_3" x="-350" y="-350"/><use xlink:href="#L1_3" x="0" y="-350"/><use xlink:href="#L1_3" x="350" y="-350"/><use xlink:href="#L1_3" x="-350" y="0"/><use xlink:href="#L1_3" x="0" y="0"/><use xlink:href="#L1_3" x="350" y="0"/><use xlink:href="#L1_3" x="-350" y="350"/><use xlink:href="#L1_3" x="0" y="350"/><use xlink:href="#L1_3" x="350" y="350"/></pattern><rect x="0" y="0" width="100%" height="100%" fill="url(#pattern_L1_3)"/></g></svg>